<svg xmlns="http://www.w3.org/2000/svg" width="64" height="64" viewBox="0 0 64 64" fill="none">
  <!-- Background (deep near-black) -->
  <rect x="4" y="4" width="56" height="56" rx="14" fill="#070B0A"/>

  <!-- Shield -->
  <path d="M32 12c6.8 3.9 13.3 4.6 18 5.1v15.6c0 11-7.5 18.6-18 22.7-10.5-4.1-18-11.7-18-22.7V17.1c4.7-.5 11.2-1.2 18-5.1Z"
        fill="#0F3D2E" stroke="#C9A227" stroke-width="2"/>

  <!-- Crown (bold + simple) -->
  <path d="M22 28l3.6-6.2L32 27l6.4-5.2L42 28l-2 8H24l-2-8Z" fill="#C9A227"/>
  <circle cx="25.6" cy="21.8" r="1.4" fill="#C9A227"/>
  <circle cx="32" cy="20.8" r="1.4" fill="#C9A227"/>
  <circle cx="38.4" cy="21.8" r="1.4" fill="#C9A227"/>

  <!-- Anvil/forge base (minimal) -->
  <path d="M24 40c6.2-1.8 9.8-1.8 16 0v2.4c0 1.8-1.4 3.2-3.2 3.2h-1.6l-.8 4.2h-4.8l-.8-4.2h-1.6c-1.8 0-3.2-1.4-3.2-3.2V40Z"
        fill="#C9A227" opacity="0.95"/>

  <!-- Spark accents -->
  <path d="M18.8 30.5l1.1.5.5 1.1.5-1.1 1.1-.5-1.1-.5-.5-1.1-.5 1.1-1.1.5Z" fill="#C9A227" opacity="0.9"/>
  <path d="M44.5 30.5l1.1.5.5 1.1.5-1.1 1.1-.5-1.1-.5-.5-1.1-.5 1.1-1.1.5Z" fill="#C9A227" opacity="0.9"/>
</svg>